<?xml version="1.0" encoding="utf-8"?>
<!DOCTYPE svg PUBLIC "-//W3C//DTD SVG 1.1//EN" "http://www.w3.org/Graphics/SVG/1.1/DTD/svg11.dtd">
<svg version="1.1" xmlns="http://www.w3.org/2000/svg" xmlns:xlink="http://www.w3.org/1999/xlink" x="0px" y="0px" height="25px" width="25px" viewBox="0 0 1000 1000" enable-background="new 0 0 1000 1000" xml:space="preserve">
<g><path fill="#7E7E7E" d="M881.1,10H118.9C59,10,10,59,10,118.9v762.2C10,941,59,990,118.9,990h762.2C941,990,990,941,990,881.1V118.9C990,59,941,10,881.1,10z M892,804.9c0,47.9-39.2,87.1-87.1,87.1H195.1c-47.9,0-87.1-39.2-87.1-87.1V195.1c0-47.9,39.2-87.1,87.1-87.1h609.8c47.9,0,87.1,39.2,87.1,87.1V804.9z"/></g>
</svg>