<?xml version="1.0" encoding="UTF-8"?>
<svg viewBox="0 0 780.5 797.5" xmlns="http://www.w3.org/2000/svg">
 <g fill-rule="evenodd" stroke="#000" stroke-width="2">
  <path d="m370.5 71.25l0.5-0.25 2.25 8q2.25 8 4 11.5l1.75 3.5-1.75 1-1.75 1v5l0.25 0.25q0.25 0.25 3.75-1l3.5-1.25 5 2.75q5 2.75 8.5 4.25t15 0 15.75-5.25 6.75-8.25 3.5-8 0.75-10l-0.25-6.5h2l2.5-0.25 2.5-0.25 3.5-1.25 3.5-1.25 89.5-2.75q89.5-2.75 123.5-4.25l34-1.5 0.25 0.25q0.25 0.25 5.75 105.25t10 209.5 10 220.5 5 118.5l-0.5 2.5-0.25 0.25q-0.25 0.25-293.75 15.75t-325.5 17l-32 1.5-0.75-0.75q-0.75-0.75-7.75-106.25t-13.5-209.5-11.5-221-4.5-119l0.5-2 125.25-6.75q125.25-6.75 164.75-8.75t40-2.25z" fill="#C491FF"/>
  <path d="m402.5 40.75l8.5-0.75 0.25 1.5 0.25 1.5 0.25 1 0.25 1-6.75 5q-6.75 5-7.5 6.75t-2.5 3-3.25 3.75-1.5 5.5v3l3.75 5.75q3.75 5.75 4.75 6.25l1 0.5 1.5 0.5q1.5 0.5 8.5 0.75l7 0.25 2.25-3q2.25-3 4.5-4l2.25-1 2.25-3.5q2.25-3.5 4.5-5.25t4.25-2l2-0.25h1v1h-2l0.25 6.5q0.25 6.5-0.75 10t-3.5 8-6.75 8.25-15.75 5.25-15 0-8.5-4.25l-5-2.75-2-2.5-2-2.5-1.75-3.5q-1.75-3.5-4-11.5l-2.25-8 1.75-7q1.75-7 5-11.25t9.75-7.75 15-4.25z" fill="#ff1919"/>
  <path d="m405.25 50l6.75-5 0.75 3.5 0.75 3.5 5.75 5.25q5.75 5.25 8.75 6.75t7 1.75l4 0.25v1l-2 0.25q-2 0.25-4.25 2t-4.5 5.25l-2.25 3.5-2.25 1q-2.25 1-4.5 4l-2.25 3-7-0.25q-7-0.25-8.5-0.75l-1.5-0.5-1-0.5q-1-0.5-4.75-6.25l-3.75-5.75v-3q0-3 1.5-5.5t3.25-3.75 2.5-3 7.5-6.75z" fill="#ff5719"/>
  <path d="m454 63.75l-2 1.25-3.5 1.25-3.5 1.25-2.5 0.25-2.5 0.25v-1h-1l-4-0.75q-4-0.75-7-2.25t-8.75-6.75l-5.75-5.25-0.75-3.5-0.75-3.5-0.25-1-0.25-1-0.25-1.5-0.25-1.5 1.75-8q1.75-8 5-11.75t5.25-4.75l2-1 1.5-0.5q1.5-0.5 11.5 1t15.25 5.75 7.75 8.75 3 6 0.5 8.5v7l-4.25 5.75q-4.25 5.75-6.25 7z" fill="#ff1919"/>
  <path d="m377.25 95l1.75-1 2 2.5 2 2.5-3.5 1.25q-3.5 1.25-3.75 1l-0.25-0.25v-5l1.75-1z" fill="#acabff"/>
 </g>
</svg>
